<svg xmlns="http://www.w3.org/2000/svg" xmlns:xlink="http://www.w3.org/1999/xlink" width="50" height="50" viewBox="0 0 82.747 59.474"><defs><linearGradient id="a" x1="0.063" y1="0.06" x2="0.98" y2="0.98" gradientUnits="objectBoundingBox"><stop offset="0" stop-color="#9d85ff"></stop><stop offset="1" stop-color="#7400d4"></stop></linearGradient></defs><g transform="translate(-73 -153.91)"><path d="M145.4,153.91H83.343A10.354,10.354,0,0,0,73,164.253v38.788a10.354,10.354,0,0,0,10.343,10.343H145.4a10.354,10.354,0,0,0,10.343-10.343V164.253A10.354,10.354,0,0,0,145.4,153.91Zm5.172,49.131a5.177,5.177,0,0,1-5.172,5.172H83.343a5.177,5.177,0,0,1-5.172-5.172V164.253a5.177,5.177,0,0,1,5.172-5.172H145.4a5.177,5.177,0,0,1,5.172,5.172Z" transform="translate(0 0)" fill="url(#a)"></path><path d="M134.837,159.494l-26.807,21.933L81.222,159.494a2.586,2.586,0,1,0-3.274,4l28.444,23.273a2.585,2.585,0,0,0,3.274,0L138.11,163.5a2.586,2.586,0,1,0-3.274-4Z" transform="translate(6.344 7.929)" fill="url(#a)"></path></g></svg>