<svg xmlns="http://www.w3.org/2000/svg" xmlns:xlink="http://www.w3.org/1999/xlink" width="50" height="60" viewBox="0 0 73.605 73.508"><defs><linearGradient id="a" x1="0.063" y1="0.06" x2="0.98" y2="0.98" gradientUnits="objectBoundingBox"><stop offset="0" stop-color="#9d85ff"></stop><stop offset="1" stop-color="#7400d4"></stop></linearGradient></defs><g transform="translate(-254.588 -149.902)"><path d="M306.032,182.655a60.727,60.727,0,0,0-32.221-32.066,2.32,2.32,0,0,0-3.055,1.331,2.445,2.445,0,0,0,1.291,3.152,56,56,0,0,1,29.708,29.566,2.343,2.343,0,0,0,2.139,1.429,2.263,2.263,0,0,0,.958-.214A2.448,2.448,0,0,0,306.032,182.655Z" transform="translate(21.345)" stroke="rgba(0,0,0,0)" stroke-width="1" fill="url(#a)"></path><path d="M271.5,160.41A33.923,33.923,0,0,1,289.518,178.3a2.265,2.265,0,0,0,2.07,1.379,2.19,2.19,0,0,0,.927-.207,2.36,2.36,0,0,0,1.139-3.085,38.508,38.508,0,0,0-20.45-20.307,2.247,2.247,0,0,0-2.955,1.286A2.362,2.362,0,0,0,271.5,160.41Z" transform="translate(20.656 7.574)" stroke="rgba(0,0,0,0)" stroke-width="1" fill="url(#a)"></path><path d="M315.058,195.52a5.531,5.531,0,0,0-8.355,0c-1.954,1.937-3.908,3.875-5.829,5.845a1.328,1.328,0,0,1-.937.5,1.364,1.364,0,0,1-.67-.207c-1.265-.689-2.612-1.248-3.827-2a60.611,60.611,0,0,1-14.609-13.295,34.693,34.693,0,0,1-5.237-8.389,1.2,1.2,0,0,1,.295-1.543c1.954-1.887,3.858-3.825,5.779-5.762,2.677-2.693,2.677-5.845-.014-8.553-1.528-1.543-3.054-3.052-4.581-4.595-1.576-1.576-3.135-3.169-4.728-4.73a5.563,5.563,0,0,0-8.355.019c-1.971,1.937-3.858,3.922-5.862,5.826a9.52,9.52,0,0,0-2.988,6.418,27.167,27.167,0,0,0,2.1,11.7,71.1,71.1,0,0,0,12.622,21.027,78.11,78.11,0,0,0,25.872,20.241,37.414,37.414,0,0,0,14.329,4.169c.311.017.618.026.92.026a10.24,10.24,0,0,0,8.094-3.456c1.673-1.873,3.561-3.58,5.334-5.367,2.627-2.66,2.643-5.878.033-8.505Q319.77,200.19,315.058,195.52Zm5.981,14.531c-.585.59-1.184,1.172-1.783,1.752-1.231,1.2-2.508,2.437-3.722,3.8a5.53,5.53,0,0,1-4.547,1.868c-.214,0-.433-.007-.661-.019-3.813-.209-7.671-1.35-12.51-3.7A73.719,73.719,0,0,1,273.5,194.724a66.1,66.1,0,0,1-11.809-19.639c-1.467-3.9-2.025-6.882-1.814-9.658a4.8,4.8,0,0,1,1.524-3.347c1.238-1.174,2.432-2.379,3.627-3.587.758-.768,1.519-1.536,2.3-2.3a.94.94,0,0,1,1.688,0c1.048,1.027,2.08,2.066,3.112,3.1l1.564,1.571c.777.787,1.555,1.564,2.332,2.341.749.749,1.5,1.5,2.256,2.263.875.88.825,1.036.012,1.854l-.8.808c-1.628,1.643-3.247,3.28-4.963,4.939a5.92,5.92,0,0,0-1.317,6.746,38.784,38.784,0,0,0,5.935,9.549,65.046,65.046,0,0,0,15.784,14.331c.937.58,1.88,1.044,2.712,1.455.454.221.906.442,1.284.649a6.069,6.069,0,0,0,3.012.822,5.953,5.953,0,0,0,4.34-1.937c1.878-1.925,3.787-3.82,5.774-5.791a.913.913,0,0,1,1.652,0q4.7,4.671,9.37,9.354C321.8,208.97,321.873,209.207,321.039,210.051Z" transform="translate(0 0.688)" stroke="rgba(0,0,0,0)" stroke-width="1" fill="url(#a)"></path></g></svg>